<svg width="131" height="88" viewBox="0 0 131 88" fill="none" xmlns="http://www.w3.org/2000/svg">
<path fill-rule="evenodd" clip-rule="evenodd" d="M64.4501 1.5H111.806L97.28 41.4471C97.2519 41.5245 97.2438 41.6063 97.2547 41.6855L97.25 41.6861C97.6659 44.8054 98.7299 48.9008 101.222 52.2278C103.733 55.5788 107.673 58.1202 113.746 58.1202C119.83 58.1202 123.87 55.3629 126.424 51.9181C128.944 48.5194 130.017 44.4595 130.239 41.7205C130.26 41.622 130.251 41.5181 130.21 41.4228L112.978 0.803874C112.899 0.616369 112.713 0.496214 112.51 0.500091L112.5 0.5H15.5C15.4948 0.5 15.4897 0.500079 15.4845 0.500235C15.475 0.499945 15.4655 0.499922 15.456 0.500173C15.2512 0.505546 15.0705 0.635662 15.0005 0.828209L0.229974 41.4471C0.201851 41.5245 0.193708 41.6063 0.204611 41.6855L0.199951 41.6861C0.615848 44.8054 1.67983 48.9008 4.17241 52.2278C6.68301 55.5788 10.6233 58.1202 16.6956 58.1202C22.7802 58.1202 26.8196 55.3629 29.3741 51.9181C31.8943 48.5194 32.9672 44.4595 33.1892 41.7205C33.21 41.622 33.2008 41.5181 33.1603 41.4228L16.2234 1.5H63.4501V86.9029H36.7949V87.9029H91.1053V86.9029H64.4501V1.5ZM129.199 42.1161H98.3192C98.7728 45.0606 99.8142 48.685 102.021 51.6299C104.351 54.7409 108.001 57.123 113.746 57.123C119.477 57.123 123.234 54.5466 125.623 51.3241C127.868 48.2968 128.908 44.6925 129.199 42.1161ZM98.4605 41.1189L112.555 2.35942L128.998 41.1189H98.4605ZM1.26913 42.1161H32.149C31.8582 44.6925 30.8179 48.2968 28.5731 51.3241C26.1835 54.5466 22.4274 57.123 16.6956 57.123C10.9514 57.123 7.30132 54.7409 4.97047 51.6299C2.76414 48.685 1.72278 45.0606 1.26913 42.1161ZM15.5048 2.35942L1.41041 41.1189H31.9482L15.5048 2.35942Z" fill="black"/>
</svg>
