<svg version="1.1" xmlns="http://www.w3.org/2000/svg" xmlns:xlink="http://www.w3.org/1999/xlink" x="0px" y="0px"
	 viewBox="0 0 24 18" style="enable-background:new 0 0 24 18;" xml:space="preserve">
<path d="M12,17.5c-7.2,0-11.3-7.9-11.4-8.3c-0.1-0.1-0.1-0.3,0-0.4C0.7,8.4,4.8,0.5,12,0.5c7.2,0,11.3,7.9,11.4,8.3
	c0.1,0.1,0.1,0.3,0,0.4C23.3,9.6,19.2,17.5,12,17.5z M1.6,9C2.3,10.3,6,16.5,12,16.5c6,0,9.7-6.2,10.4-7.5C21.7,7.7,18,1.5,12,1.5
	C6,1.5,2.3,7.7,1.6,9z"/>
<path d="M12,12.5c-1.9,0-3.5-1.6-3.5-3.5s1.6-3.5,3.5-3.5s3.5,1.6,3.5,3.5S13.9,12.5,12,12.5z M12,6.5c-1.4,0-2.5,1.1-2.5,2.5
	c0,1.4,1.1,2.5,2.5,2.5c1.4,0,2.5-1.1,2.5-2.5C14.5,7.6,13.4,6.5,12,6.5z"/>
</svg>
