<svg version="1.1" xmlns="http://www.w3.org/2000/svg" xmlns:xlink="http://www.w3.org/1999/xlink" x="0px" y="0px"
 viewBox="0 0 130 130" style="enable-background:new 0 0 130 130;" xml:space="preserve">
<path d="M64.5,22.5h48.3v-1H16c-0.3,0-0.5,0.2-0.5,0.5s0.2,0.5,0.5,0.5h47.4v85.4H36.8v1h54.3v-1H64.5V22.5z"/>
<path d="M33.6,63.8L16.3,23c-0.1-0.2-0.3-0.3-0.5-0.3c-0.2,0-0.4,0.1-0.5,0.3L0.5,63.8c0,0.1,0,0.2,0,0.2l0,0
	C1.2,69,4.1,80.5,17,80.5c12.1,0,16.1-10.8,16.5-16.5l0,0C33.6,63.9,33.6,63.8,33.6,63.8z M15.8,24.6l16.5,38.9H1.7L15.8,24.6z
	 M17,79.5c-5,0-13.5-2-15.5-15h31C31.9,70,28,79.5,17,79.5z"/>
<path d="M129.9,64C129.9,64,129.9,64,129.9,64L129.9,64c0-0.1,0-0.2,0-0.2L112.5,23c-0.1-0.2-0.3-0.3-0.5-0.3
	c-0.2,0-0.4,0.1-0.5,0.3L96.8,63.8c0,0.1,0,0.2,0,0.2l0,0c0.7,5,3.6,16.5,16.5,16.5C125.4,80.5,129.4,69.7,129.9,64
	C129.9,64,129.9,64,129.9,64z M112.1,24.6l16.5,38.9H98L112.1,24.6z M113.3,79.5c-5,0-13.5-2-15.5-15h31
	C128.2,70,124.3,79.5,113.3,79.5z"/>
</svg>
