<svg version="1.1" xmlns="http://www.w3.org/2000/svg" xmlns:xlink="http://www.w3.org/1999/xlink" x="0px" y="0px"
	 viewBox="0 0 16 17" style="enable-background:new 0 0 16 17;" xml:space="preserve">
<path d="M14.9,15.2c-2.5,0.5-6.1,0.5-8.3-1.3c-1.1-0.9-1.8-2.1-2.1-3.7h9.6v-1H4.5c0-0.2,0-0.4,0-0.6c0-0.2,0-0.5,0-0.7h9.7v-1H4.6
	c0.3-1.5,0.9-2.6,1.9-3.5c2.5-2.2,6.7-1.9,8.4-1.6l0.1-1c-1.8-0.3-6.4-0.6-9.2,1.9C4.6,3.6,3.9,5,3.6,6.8H0.8v1h2.7
	c0,0.2,0,0.5,0,0.7c0,0.2,0,0.4,0,0.6H0.8v1h2.8c0.3,1.9,1.1,3.4,2.4,4.5c1.7,1.3,3.9,1.8,6.1,1.8c1.1,0,2.1-0.1,3-0.3L14.9,15.2z"
	/>
</svg>
