<svg version="1.1" xmlns="http://www.w3.org/2000/svg" xmlns:xlink="http://www.w3.org/1999/xlink" x="0px" y="0px"
	 viewBox="0 0 22 22" style="enable-background:new 0 0 22 22;" xml:space="preserve">
<path d="M11,21.5C5.2,21.5,0.5,16.8,0.5,11C0.5,5.2,5.2,0.5,11,0.5c5.8,0,10.5,4.7,10.5,10.5C21.5,16.8,16.8,21.5,11,21.5z M11,1.5
	c-5.2,0-9.5,4.3-9.5,9.5s4.3,9.5,9.5,9.5s9.5-4.3,9.5-9.5S16.2,1.5,11,1.5z"/>
<path d="M6.8,15.7c-0.1,0-0.3-0.1-0.4-0.1c-0.1-0.1-0.2-0.3-0.1-0.5l2.1-6.4c0-0.1,0.2-0.3,0.3-0.3l6.4-2.1c0.2-0.1,0.4,0,0.5,0.1
	c0.1,0.1,0.2,0.3,0.1,0.5l-2.1,6.4c0,0.1-0.2,0.3-0.3,0.3l-6.4,2.1C6.9,15.7,6.8,15.7,6.8,15.7z M9.3,9.3l-1.7,5.2l5.2-1.7l1.7-5.2
	L9.3,9.3z"/>
</svg>
