<svg version="1.1" xmlns="http://www.w3.org/2000/svg" xmlns:xlink="http://www.w3.org/1999/xlink" x="0px" y="0px"
	 viewBox="0 0 130 130" style="enable-background:new 0 0 130 130;" xml:space="preserve">
<path d="M105.2,105.6c-15.1,3.2-36,2.8-49.3-8c-7.4-6-11.7-14.5-13-25.4h57.8v-1H42.9c-0.2-2-0.3-4-0.3-6.1c0-2.2,0.1-4.4,0.3-6.5
	h57.9v-1H43c1.3-10.2,5.3-18.3,12-24.2c15.2-13.2,40.2-11.4,50.2-9.9l0.1-1c-10.2-1.4-35.5-3.3-51,10.2c-6.9,6-11.1,14.4-12.4,24.9
	H24v1h17.9c-0.2,2.1-0.3,4.2-0.3,6.5c0,2.1,0.1,4.1,0.3,6.1H24v1h18c1.3,11.2,5.8,20,13.4,26.2c9,7.3,21.4,9.9,33.2,9.9
	c6,0,11.8-0.7,16.9-1.8L105.2,105.6z"/>
</svg>
