<svg version="1.1" xmlns="http://www.w3.org/2000/svg" xmlns:xlink="http://www.w3.org/1999/xlink" x="0px" y="0px"
	 viewBox="0 0 130 130" style="enable-background:new 0 0 130 130;" xml:space="preserve">
<path d="M65,106.8c-36.1,0-57.1-41.2-57.3-41.6c-0.1-0.1-0.1-0.3,0-0.4C7.9,64.4,28.9,23.2,65,23.2s57.1,41.2,57.3,41.6
	c0.1,0.1,0.1,0.3,0,0.4C122.1,65.6,101.1,106.8,65,106.8z M8.7,65c1.7,3.3,22.2,40.8,56.3,40.8c34.1,0,54.6-37.6,56.3-40.8
	c-1.7-3.3-22.2-40.8-56.3-40.8C30.9,24.2,10.4,61.7,8.7,65z"/>
<path d="M65,81c-8.8,0-16-7.2-16-16s7.2-16,16-16s16,7.2,16,16S73.8,81,65,81z M65,50c-8.3,0-15,6.7-15,15c0,8.3,6.7,15,15,15
	c8.3,0,15-6.7,15-15C80,56.7,73.3,50,65,50z"/>
</svg>
