<svg version="1.1" xmlns="http://www.w3.org/2000/svg" xmlns:xlink="http://www.w3.org/1999/xlink" x="0px" y="0px"
	 viewBox="0 0 130 130" style="enable-background:new 0 0 130 130;" xml:space="preserve">
<path d="M103.1,14.5c-1.9,0.9-47.8,22.1-58,33.9c-8.4,6-21.5,27.7-12,41.2c2.7,3.8,6.4,7,10.9,9.4c-6.9,7.2-13.5,13.1-17.8,15.5
	l0.5,0.9c4.5-2.6,11.2-8.5,18.3-15.9c5.4,2.7,11.7,4.3,18.4,4.4c0.2,0,0.5,0,0.7,0c9.9,0,18.3-3.4,22.7-9.2
	c6.1-8.1,10.4-27.3,12.4-38c2.8-14.9,4.7-31.7,4.7-41.7v-0.8L103.1,14.5z M85.9,94.1c-4.3,5.7-12.7,9-22.6,8.8
	c-6.4-0.1-12.4-1.6-17.6-4.2C58.7,85.1,72.9,67,76.8,57.5l-0.9-0.4c-3.9,9.3-18.2,27.5-31.2,41.2c-4.4-2.3-8.1-5.5-10.8-9.2
	C24.7,76,37.6,55,45.7,49.2l0.1-0.1c9.3-10.8,51-30.5,57-33.3C102.6,35.7,95.5,81.4,85.9,94.1z"/>
</svg>
