<svg version="1.1" xmlns="http://www.w3.org/2000/svg" xmlns:xlink="http://www.w3.org/1999/xlink" x="0px" y="0px"
	 viewBox="0 0 29 20" style="enable-background:new 0 0 29 20;" xml:space="preserve">
<path d="M28.2,9.8C28.2,9.8,28.2,9.8,28.2,9.8L28.2,9.8c0-0.1,0-0.2,0-0.2l-3.6-8.5c-0.1-0.1-0.2-0.2-0.3-0.3V0.5H4.1
	C3.9,0.5,3.6,0.7,3.6,1c0,0,0,0,0,0c0,0,0,0,0,0L0.5,9.6c0,0.1,0,0.2,0,0.2l0,0c0.2,1.1,0.8,3.8,3.8,3.8c2.8,0,3.7-2.5,3.8-3.8
	c0,0,0,0,0,0c0,0,0,0,0,0l0,0c0-0.1,0-0.2,0-0.2l-3.4-8h8.9v17H8.5v1h11.3v-1h-5.2v-17h8.9l-2.9,8.1c0,0.1,0,0.2,0,0.2h0
	c0.2,1.1,0.8,3.8,3.8,3.8C27.2,13.6,28.1,11.1,28.2,9.8C28.2,9.8,28.2,9.8,28.2,9.8z M4.3,12.6c-1.8,0-2.5-1.3-2.7-2.3h5.5
	C6.8,11.3,6.1,12.6,4.3,12.6z M1.7,9.2l2.4-6.6l2.8,6.6H1.7z M24.2,2.6L27,9.2h-5.2L24.2,2.6z M24.4,12.6c-1.8,0-2.5-1.3-2.7-2.3
	h5.5C26.9,11.3,26.1,12.6,24.4,12.6z"/>
</svg>
