<svg version="1.1" xmlns="http://www.w3.org/2000/svg" xmlns:xlink="http://www.w3.org/1999/xlink" x="0px" y="0px"
	 viewBox="0 0 114 114" style="enable-background:new 0 0 114 114;" xml:space="preserve">
<path d="M57,105C30.5,105,9,83.5,9,57C9,30.5,30.5,9,57,9c26.5,0,48,21.5,48,48C105,83.5,83.5,105,57,105z M57,10
	c-25.9,0-47,21.1-47,47s21.1,47,47,47s47-21.1,47-47S82.9,10,57,10z"/>
<path d="M36.9,77.6c-0.1,0-0.3-0.1-0.4-0.1c-0.1-0.1-0.2-0.3-0.1-0.5l10.1-30.2c0-0.1,0.2-0.3,0.3-0.3L77,36.4
	c0.2-0.1,0.4,0,0.5,0.1c0.1,0.1,0.2,0.3,0.1,0.5L67.5,67.2c0,0.1-0.2,0.3-0.3,0.3L37,77.6C37,77.6,36.9,77.6,36.9,77.6z M47.3,47.3
	l-9.7,29l29-9.7l9.7-29L47.3,47.3z"/>
</svg>
