<?xml version="1.0" encoding="utf-8"?>
<!-- Generator: Adobe Illustrator 26.0.2, SVG Export Plug-In . SVG Version: 6.00 Build 0)  -->
<svg version="1.2" baseProfile="tiny" id="Calque_1"
	 xmlns="http://www.w3.org/2000/svg" xmlns:xlink="http://www.w3.org/1999/xlink" x="0px" y="0px" width="897.4px"
	 height="1639.8px" viewBox="0 0 897.4 1639.8" overflow="visible" xml:space="preserve">
<g>
	<path fill="#FFFFFF" d="M621.7,1532c0,28.5,0,57.1,0,86.3c-8.7,0-16.8,0.1-24.9-0.1c-0.9,0-2.1-1.6-2.6-2.8c-0.5-1.2-0.1-2.6-0.1-4
		c0-39,0-78,0-117c0-2,0-3.9,0-6.7c9.8,0,19-0.2,28.2,0.2c1.4,0.1,3,2.3,4,3.9c16.8,26,33.6,52,50.3,78.1c1,1.5,2,3,3.9,5.7
		c0-30,0-58.5,0-87.4c9.4,0,18.3,0,27.5,0c0,43,0,86.1,0,130.1c-6.8,0-13.7-0.5-20.6,0.1c-6.6,0.6-10.1-2-13.5-7.4
		c-15.8-25.3-32.1-50.2-48.2-75.3c-0.9-1.4-1.8-2.7-2.7-4.1C622.6,1531.8,622.2,1531.9,621.7,1532z"/>
	<path fill="#FFFFFF" d="M257.1,1487.8c9.3,0,18.5-0.2,27.6,0.2c1.5,0.1,3.2,2.1,4.2,3.6c16.8,26,33.6,52,50.4,78.1
		c1,1.5,2,3,4.1,4.2c0-28.5,0-56.9,0-85.8c9.5,0,18.3,0,27.5,0c0.1,1.8,0.3,3.6,0.3,5.3c0,39.7-0.1,79.3,0.1,119
		c0,4.5-1.1,6.2-5.8,5.9c-6.3-0.4-12.7-0.3-19,0c-3.6,0.2-5.7-1.2-7.6-4.2c-16.6-26.1-33.4-52.1-50.2-78.2c-0.9-1.5-2-2.9-4-4
		c0,28.5,0,57.1,0,85.9c-9.5,0-18.4,0-27.5,0C257.1,1574.6,257.1,1531.5,257.1,1487.8z"/>
	<path fill="#FFFFFF" d="M398,1487.2c24.1,0.5,47.7-0.4,70.9,2c26.5,2.6,44.4,23.1,47.5,49.7c1.8,15.3,1.1,30.3-4.8,44.7
		c-8.6,21-24.7,32.6-47,34c-21.1,1.3-42.3,0.6-63.4,0.8c-1,0-1.9-0.3-3.1-0.5C398,1574.6,398,1531.5,398,1487.2z M427.5,1512.3
		c0,27.2,0,54.2,0,81.9c9.9,0,19.5,0.3,29.1-0.1c13.9-0.6,23.4-7.7,28.2-20.8c4.1-11.3,3.7-22.9,1.3-34.5
		c-3.2-15.2-12.3-24.8-27.9-26.4C448.2,1511.4,438,1512.3,427.5,1512.3z"/>
	<path fill="#FFFFFF" d="M852.5,1530.5c-8.9,0-17.6,0.1-26.2-0.1c-0.9,0-2.2-1.3-2.5-2.3c-4-11.8-12.2-18.4-24.6-19.5
		c-14.4-1.2-26.7,3.2-33.8,16.4c-9.5,17.9-9.7,36.5-0.8,54.7c10.6,21.5,38.8,21.3,51.9,11.9c7.4-5.3,10.3-13.1,11.3-22.7
		c-10.1,0-19.8,0-29.7,0c0-7.3,0-13.9,0-20.8c18.7,0,37.1,0,56,0c0,23.1,0,46.1,0,70.1c-5.3,0-10.7,0.2-16.1-0.2
		c-1-0.1-2.4-2-2.8-3.3c-1-3.3-1.5-6.7-2.2-10.4c-0.9,0.4-1.4,0.5-1.7,0.8c-13.2,15-30.2,18.1-48.7,14.8
		c-32.5-5.7-53-30.6-53.5-63.7c-0.2-13.2,1.7-25.9,7.9-37.7c10.9-21,28.5-31.9,51.9-33.7c13.2-1.1,25.9,0.7,37.7,7.2
		C841.4,1500.3,850.3,1512.8,852.5,1530.5z"/>
	<path fill="#FFFFFF" d="M134.1,1488c33.8,0,67.1,0,100.7,0c0,7.8,0,15.4,0,23.4c-23.7,0-47.1,0-71,0c0,9.6,0,18.7,0,28.4
		c21.6,0,43,0,64.9,0c0,7.5,0,14.5,0,22.1c-21.7,0-43.2,0-64.9,0c0,10.9,0,21.3,0,32.4c24.1,0,48.2,0,72.4,0c0,8.3,0,15.8,0,23.7
		c-34.2,0-68,0-102.1,0C134.1,1574.6,134.1,1531.5,134.1,1488z"/>
	<path fill="#FFFFFF" d="M36.7,1618c-9.9,0-19.2,0-28.8,0c0-43.3,0-86.4,0-129.7c1-0.2,1.9-0.6,2.9-0.6c21.6,0,43.3-0.5,64.9,0.4
		c16.3,0.7,29.8,7.9,36,24.1c6.2,16.3,4.9,32.2-7.2,45.8c-9.2,10.3-21.7,13-34.9,13.3c-9.3,0.2-18.7,0.2-28-0.1
		c-4.1-0.1-5.1,1.4-5,5.2C36.8,1590,36.7,1603.7,36.7,1618z M36.7,1529.1c0,5.5-0.2,11,0.1,16.5c0.1,1.3,1.8,3.5,2.8,3.4
		c10.6-0.1,21.3,0.3,31.8-1.1c10.4-1.4,15.3-8.5,15.1-19c-0.2-10.3-5.6-17.2-16-18.3c-10.2-1.1-20.6-0.9-30.8-0.9
		c-1,0-2.8,2.1-2.9,3.4C36.5,1518.5,36.7,1523.8,36.7,1529.1z"/>
	<path fill="#FFFFFF" d="M567.2,1618.3c-8.8,0-17.6,0.1-26.4-0.1c-0.9,0-2.1-1.6-2.6-2.7c-0.5-1.2-0.1-2.6-0.1-4
		c0-39,0-77.9,0-116.9c0-2.1,0.2-4.2,0.3-6.6c9.7,0,19,0,28.8,0C567.2,1531.2,567.2,1574.4,567.2,1618.3z"/>
</g>
<path fill="#FFFFFF" d="M116.6,50.4c-2.1-3.1-4.5-5.9-7.3-8.3c-3.1-2.4-6.3-4.2-10.1-5.6c-3.8-1.4-7.6-2.1-11.8-2.1
	c-7.6,0-13.9,1.4-19.1,4.5c-5.2,2.8-9.4,6.9-12.9,11.8c-3.1,4.9-5.6,10.4-6.9,16.7c-1.4,6.3-2.1,12.5-2.1,19.5
	c0,6.3,0.7,12.5,2.1,18.8c1.4,5.9,3.8,11.5,6.9,16.3c3.1,4.9,7.6,8.7,12.9,11.5c5.2,2.8,11.5,4.5,19.1,4.5c10.1,0,18.1-3.1,24-9.4
	c5.9-6.3,9.4-14.6,10.4-24.7h32.3c-0.7,9.4-3.1,18.1-6.6,25.7c-3.5,7.6-8.3,14.2-13.9,19.5c-5.9,5.2-12.5,9.4-20.5,12.2
	c-7.6,2.8-16.3,4.2-25.7,4.2c-11.5,0-22.2-2.1-31.3-5.9c-9.4-4.2-17-9.7-23.6-16.7c-6.3-6.9-11.1-15.3-14.6-25
	c-3.5-9.4-5.2-19.8-5.2-30.9c0-11.5,1.7-21.9,5.2-31.6s8.3-18.1,14.6-25.4s14.2-12.9,23.6-17S76,6.6,87.4,6.6c8.3,0,16.3,1,23.6,3.5
	s14.2,5.9,19.8,10.4c5.9,4.5,10.8,10.4,14.6,17c3.8,6.9,6.3,14.6,7.3,23.3h-32.3C119.7,57,118.7,53.5,116.6,50.4 M201.4,135.1
	c4.5,4.5,11.1,6.6,19.5,6.6c6.3,0,11.5-1.4,15.6-4.5c4.5-3.1,6.9-6.3,8-9.7h26.4c-4.2,13.2-10.8,22.6-19.5,28.1s-19.5,8.3-32,8.3
	c-8.7,0-16.3-1.4-23.3-4.2c-6.9-2.8-12.9-6.6-17.7-11.8c-4.9-5.2-8.7-11.1-11.1-18.4c-2.8-6.9-3.8-14.9-3.8-23.3s1.4-16,4.2-22.9
	c2.8-6.9,6.6-13.2,11.5-18.4s10.8-9.4,17.7-12.2c6.9-3.1,14.6-4.5,22.9-4.5c9.4,0,17.4,1.7,24.3,5.6c6.9,3.5,12.5,8.3,17,14.6
	c4.5,6.3,7.6,13.2,9.7,20.8c2.1,7.6,2.8,16,2.1,24.3h-79.2C194.4,123.7,196.8,130.6,201.4,135.1 M235.8,77.5
	c-3.5-3.8-9-5.9-16.3-5.9c-4.9,0-8.7,0.7-12.2,2.4c-3.1,1.7-5.6,3.8-7.6,5.9c-1.7,2.4-3.1,4.9-4.2,7.6c-0.7,2.8-1.4,5.2-1.4,7.3h49
	C241.7,87.2,239.2,81.3,235.8,77.5 M315.6,51.8v20.5h0.3c1.4-3.5,3.5-6.6,5.6-9.4c2.4-2.8,5.2-5.2,8.3-7.3c3.1-2.1,6.6-3.5,10.1-4.9
	c3.5-1,7.3-1.7,11.1-1.7c2.1,0,4.2,0.3,6.6,1v28.1c-1.4-0.3-3.1-0.7-5.2-0.7c-2.1-0.3-3.8-0.3-5.6-0.3c-5.6,0-10.1,1-13.9,2.8
	s-6.9,4.5-9.4,7.6s-4.2,6.9-4.9,11.1c-1,4.2-1.4,8.7-1.4,13.9v49h-30.2V51.8C287.2,51.8,315.6,51.8,315.6,51.8z M438.3,51.8v20.1
	H416v54.5c0,5.2,0.7,8.3,2.4,10.1c1.7,1.7,5.2,2.4,10.1,2.4c1.7,0,3.5,0,4.9-0.3c1.4,0,3.1-0.3,4.5-0.7v23.3
	c-2.4,0.3-5.6,0.7-8.3,0.7c-3.1,0-6.3,0.3-9,0.3c-4.5,0-9-0.3-13.2-1c-4.2-0.7-8-1.7-11.1-3.8c-3.1-1.7-5.6-4.5-7.6-8
	c-1.7-3.5-2.8-8-2.8-13.2v-65h-18.4V51.1h18.4v-33H416v33h22.2C438.3,51.1,438.3,51.8,438.3,51.8z M453.5,9.7h30.2v25h-30.2V9.7z
	 M483.8,161.5h-30.2V51.8h30.2C483.8,51.8,483.8,161.5,483.8,161.5z M496.3,71.9V51.8h18.1v-8.3c0-9.7,3.1-17.7,9-24
	c6.3-6.3,15.3-9.4,27.8-9.4c2.8,0,5.2,0,8,0.3s5.2,0.3,8,0.7v22.6c-3.5-0.3-7.3-0.7-11.1-0.7c-4.2,0-6.9,1-8.7,2.8
	c-1.7,1.7-2.8,5.2-2.8,9.7v6.6h20.8v20.1h-20.8v89.3h-30.2V71.9L496.3,71.9L496.3,71.9z M583.5,9.7h30.2v25h-30.2V9.7z M613.7,161.5
	h-30.2V51.8h30.2C613.7,51.8,613.7,161.5,613.7,161.5z M661.3,135.1c4.5,4.5,11.1,6.6,19.5,6.6c6.3,0,11.5-1.4,15.6-4.5
	c4.5-3.1,6.9-6.3,8-9.7h26.4c-4.2,13.2-10.8,22.6-19.5,28.1c-8.7,5.6-19.5,8.3-32,8.3c-8.7,0-16.3-1.4-23.3-4.2s-12.9-6.6-17.7-11.8
	c-4.9-5.2-8.7-11.1-11.1-18.4c-2.8-6.9-3.8-14.9-3.8-23.3s1.4-16,4.2-22.9S634.2,70.2,639,65c4.9-5.2,10.8-9.4,17.7-12.2
	c6.9-3.1,14.6-4.5,22.9-4.5c9.4,0,17.4,1.7,24.3,5.6c6.9,3.5,12.5,8.3,17,14.6c4.5,6.3,7.6,13.2,9.7,20.8s2.8,16,2.1,24.3h-79.2
	C654.3,123.7,656.8,130.6,661.3,135.1 M695.3,77.5c-3.5-3.8-9-5.9-16.3-5.9c-4.9,0-8.7,0.7-12.2,2.4c-3.1,1.7-5.9,3.8-7.6,5.9
	c-2.1,2.4-3.1,4.9-4.2,7.6c-0.7,2.8-1.4,5.2-1.4,7.3h49C701.6,87.2,698.8,81.3,695.3,77.5 M824.5,147.3c-3.5,5.9-8.3,10.1-13.9,12.9
	c-5.9,2.8-12.2,3.8-19.5,3.8c-8.3,0-15.3-1.7-21.5-4.9s-11.5-7.6-15.3-12.9c-4.2-5.6-6.9-11.8-9-18.8c-2.1-6.9-3.1-14.6-3.1-22.2
	c0-7.3,1-14.6,3.1-21.2c2.1-6.9,5.2-12.9,9-18.1c4.2-5.2,9-9.4,15.3-12.5c6.3-3.1,13.2-4.9,21.2-4.9c6.6,0,12.9,1.4,18.4,4.2
	c5.9,2.8,10.4,6.9,13.9,12.2h0.3V9.7h30.2v151.8h-28.8v-13.9h-0.3C824.5,147.6,824.5,147.3,824.5,147.3z M823.1,93.1
	c-0.7-4.2-2.4-8-4.5-11.1s-4.9-5.9-8-7.6c-3.1-2.1-7.3-3.1-12.2-3.1s-9,1-12.5,3.1s-6.3,4.5-8.3,8c-2.1,3.1-3.5,6.9-4.5,11.1
	c-1,4.2-1.4,8.7-1.4,13.2c0,4.2,0.3,8.3,1.4,12.9c1,4.2,2.8,8,4.9,11.5c2.1,3.5,4.9,5.9,8.3,8c3.5,2.1,7.3,3.1,12.2,3.1
	s9-1,12.5-3.1c3.5-2.1,5.9-4.5,8-8c2.1-3.5,3.5-6.9,4.2-11.5c0.7-4.2,1.4-8.7,1.4-13.2C824.5,101.8,824.2,97.3,823.1,93.1
	 M252.4,408.2h175.8c42.7,0,99,0,128.2,17.7c32,19.1,57,53.5,57,101.1c0,51.4-27.1,90.3-71.9,108.7v1.4
	c59.7,12.2,92.4,57,92.4,116.7c0,71.2-51.1,139.3-147.3,139.3H252.4V408.2z M317,616.6h129.2c73.3,0,103.2-26.4,103.2-77.5
	c0-67.4-47.6-76.8-103.2-76.8H317V616.6z M317,838.5h161.5c55.6,0,91-34,91-86.8c0-63.2-51.1-80.9-105.2-80.9H317V838.5z"/>
<path fill="#FFFFFF" d="M798.8,650.6c0,203.6-165,368.5-368.9,368.5c-203.6,0-368.5-165-368.5-368.5s165-368.5,368.5-368.5
	C633.8,282.1,798.8,447.1,798.8,650.6 M430.3,225.8c-234.5,0-424.8,190-424.8,424.8c0,234.5,190,424.8,424.8,424.8
	c234.5,0,424.8-190,424.8-424.8S664.7,225.8,430.3,225.8 M84,1341.5c-1.4-10.8-11.8-18.8-23.6-18.8c-21.2,0-29.2,18.1-29.2,36.8
	c0,17.7,8,35.8,29.2,35.8c14.6,0,22.6-10.1,24.3-24h22.9c-2.4,26.7-20.8,43.8-47.2,43.8c-33.3,0-52.8-24.7-52.8-55.9
	c0-32,19.5-56.6,52.8-56.6c23.6,0,43.4,13.9,46.2,38.6L84,1341.5L84,1341.5z M156.9,1333.2c24.7,0,40.3,16.3,40.3,41
	s-15.6,41-40.3,41c-24.3,0-40.3-16.3-40.3-41C117,1349.2,132.6,1333.2,156.9,1333.2 M156.9,1398.8c14.6,0,19.1-12.5,19.1-24.7
	c0-12.5-4.5-25-19.1-25s-18.8,12.5-18.8,25C138.1,1386.3,142.7,1398.8,156.9,1398.8 M209.7,1335.3h20.1v14.6h0.3
	c3.8-9.7,14.6-16.7,24.7-16.7c1.4,0,3.1,0.3,4.5,0.7v19.8c-2.1-0.3-5.2-0.7-7.6-0.7c-15.6,0-21.2,11.1-21.2,25v35.1h-21.2v-77.8
	L209.7,1335.3L209.7,1335.3z M271.2,1335.3h20.1v10.1h0.3c5.2-8.3,13.5-12.2,23.3-12.2c24.3,0,35.4,19.8,35.4,41.7
	c0,20.8-11.5,40.3-34,40.3c-9.4,0-18.1-4.2-23.3-11.8h-0.7v37.2h-21.2V1335.3L271.2,1335.3z M328.8,1374.2c0-12.5-4.9-25-18.8-25
	c-13.9,0-18.4,12.5-18.4,25s4.9,24.7,18.8,24.7C324.3,1398.8,328.8,1387,328.8,1374.2 M400.7,1333.2c24.7,0,40.3,16.3,40.3,41
	s-16,41-40.3,41s-40.3-16.3-40.3-41C360.5,1349.2,376.4,1333.2,400.7,1333.2 M400.7,1398.8c14.6,0,19.1-12.5,19.1-24.7
	c0-12.5-4.5-25-19.1-25c-14.6,0-18.8,12.5-18.8,25C382,1386.3,386.2,1398.8,400.7,1398.8 M455.3,1335.3h20.1v14.6h0.3
	c3.8-9.7,14.6-16.7,24.7-16.7c1.4,0,3.5,0.3,4.5,0.7v19.8c-2.1-0.3-5.2-0.7-7.6-0.7c-15.6,0-21.2,11.1-21.2,25v35.1h-21.2v-77.8
	L455.3,1335.3L455.3,1335.3z M512.9,1359.3c1.4-20.1,19.1-26.1,36.5-26.1c15.6,0,34,3.5,34,22.2v40.3c0,6.9,0.7,14.2,2.8,17.4h-21.5
	c-0.7-2.4-1.4-4.9-1.4-7.6c-6.6,6.9-16.7,9.7-26.1,9.7c-14.6,0-26.4-7.3-26.4-23.3c0-17.7,13.2-21.9,26.4-23.6
	c13.2-2.1,25.4-1.4,25.4-10.1c0-9-6.3-10.4-13.9-10.4c-8,0-13.5,3.1-14.2,11.8L512.9,1359.3L512.9,1359.3z M562.3,1374.9
	c-3.5,3.1-11.1,3.5-17.7,4.5c-6.6,1.4-12.5,3.5-12.5,11.5s6.3,10.1,13.2,10.1c16.7,0,17.4-13.2,17.4-17.7L562.3,1374.9L562.3,1374.9
	z M627.2,1335.3h15.6v14.2h-15.6v38.6c0,7.3,1.7,9,9,9c2.4,0,4.5,0,6.6-0.7v16.7c-3.5,0.7-8.3,0.7-12.5,0.7
	c-13.2,0-24.3-3.1-24.3-18.4v-45.9h-12.9v-14.2H606V1312h21.2V1335.3z M674.8,1323.1h-21.2v-17.7h21.2V1323.1z M653.6,1335.3h21.2
	v77.8h-21.2V1335.3z M726.6,1333.2c24.7,0,40.3,16.3,40.3,41s-16,41-40.3,41c-24.3,0-39.9-16.3-39.9-41
	C686.3,1349.2,702.3,1333.2,726.6,1333.2 M726.6,1398.8c14.6,0,19.1-12.5,19.1-24.7c0-12.5-4.2-25-19.1-25
	c-14.6,0-18.8,12.5-18.8,25C707.8,1386.3,712,1398.8,726.6,1398.8 M780.4,1335.3h20.1v10.8h0.3c5.6-8.7,14.6-12.9,23.6-12.9
	c22.6,0,28.5,12.9,28.5,32v47.9h-21.2v-43.8c0-12.9-3.8-19.1-13.5-19.1c-11.5,0-16.7,6.6-16.7,22.2v40.6h-21.2V1335.3L780.4,1335.3z
	 M7.2,1176.8h846.5v54.2H7.2V1176.8z M865.9,1127.5H861v13.5h-2.4v-13.5h-4.9v-2.1h12.5v2.1H865.9L865.9,1127.5z M886.7,1141.1h-2.4
	v-13.2l-5.2,13.2h-1.7l-5.2-13.2v13.2h-2.8v-15.6h4.2l4.9,11.8l4.5-11.8h4.2v15.6H886.7L886.7,1141.1z"/>
</svg>
